<svg version="1.2" xmlns="http://www.w3.org/2000/svg" viewBox="0 0 448 512" width="448" height="512">
	<title>calendarIcon-svg</title>
	<style>
		.s0 { fill: #ced4da } 
	</style>
	<path id="Layer" fill-rule="evenodd" class="s0" d="m152 64h144v-40c0-13.3 10.7-24 24-24 13.3 0 24 10.7 24 24v40h40c35.3 0 64 28.7 64 64v320c0 35.3-28.7 64-64 64h-320c-35.3 0-64-28.7-64-64v-320c0-35.3 28.7-64 64-64h40v-40c0-13.3 10.7-24 24-24 13.3 0 24 10.7 24 24zm-104 184h80v-56h-80zm0 112h80v-64h-80zm128 0h96v-64h-96zm144 0h80v-64h-80zm80-168h-80v56h80zm-80 216v56h64c8.8 0 16-7.2 16-16v-40zm-144 0v56h96v-56zm-128 0v40c0 8.8 7.2 16 16 16h64v-56zm224-216h-96v56h96z"/>
</svg>